<?xml version="1.0" encoding="UTF-8" standalone="no"?>
<svg
   xmlns:dc="http://purl.org/dc/elements/1.1/"
   xmlns:cc="http://creativecommons.org/ns#"
   xmlns:rdf="http://www.w3.org/1999/02/22-rdf-syntax-ns#"
   xmlns:svg="http://www.w3.org/2000/svg"
   xmlns="http://www.w3.org/2000/svg"
   id="svg4"
   version="1.1"
   height="1536"
   width="1536">
  <metadata
     id="metadata10">
    <rdf:RDF>
      <cc:Work
         rdf:about="">
        <dc:format>image/svg+xml</dc:format>
        <dc:type
           rdf:resource="http://purl.org/dc/dcmitype/StillImage" />
        <dc:title></dc:title>
      </cc:Work>
    </rdf:RDF>
  </metadata>
  <defs
     id="defs8" />
  <path
     id="path2"
     d="M 1280,800 V 320 c 0,-35 -29,-64 -64,-64 H 736 c -26,0 -49,16 -59,39 -10,24 -5,52 14,70 l 144,144 -534,534 c -25,25 -25,65 0,90 l 102,102 c 25,25 65,25 90,0 l 534,-534 144,144 c 12,13 28,19 45,19 8,0 17,-2 25,-5 23,-10 39,-33 39,-59 z m 256,-512 v 960 c 0,159 -129,288 -288,288 H 288 C 129,1536 0,1407 0,1248 V 288 C 0,129 129,0 288,0 h 960 c 159,0 288,129 288,288 z" />
</svg>
