<?xml version="1.0" encoding="UTF-8" standalone="no"?>
<svg
   xmlns:dc="http://purl.org/dc/elements/1.1/"
   xmlns:cc="http://creativecommons.org/ns#"
   xmlns:rdf="http://www.w3.org/1999/02/22-rdf-syntax-ns#"
   xmlns:svg="http://www.w3.org/2000/svg"
   xmlns="http://www.w3.org/2000/svg"
   id="svg4"
   version="1.1"
   height="1536"
   width="1536">
  <metadata
     id="metadata10">
    <rdf:RDF>
      <cc:Work
         rdf:about="">
        <dc:format>image/svg+xml</dc:format>
        <dc:type
           rdf:resource="http://purl.org/dc/dcmitype/StillImage" />
        <dc:title></dc:title>
      </cc:Work>
    </rdf:RDF>
  </metadata>
  <defs
     id="defs8" />
  <path
     id="path2"
     d="m 582,1180 c 0,54 -49,66 -93,66 -43,0 -107,-7 -107,-63 0,-55 54,-64 98,-64 42,0 102,7 102,61 z M 546,714 c 0,50 -20,85 -74,85 -55,0 -77,-32 -77,-84 0,-52 20,-90 77,-90 51,0 74,42 74,89 z M 712,639 V 514 c -43,16 -89,29 -135,29 -33,-19 -71,-29 -110,-29 -114,0 -204,84 -204,200 0,62 41,148 103,169 v 3 c -32,14 -38,53 -38,85 0,33 12,60 41,77 v 3 c -68,22 -113,65 -113,139 0,127 121,163 227,163 128,0 224,-47 224,-188 0,-100 -91,-130 -174,-145 -28,-5 -76,-25 -76,-60 0,-33 18,-47 49,-52 102,-20 167,-99 167,-204 0,-18 -4,-35 -10,-52 16,-4 33,-8 49,-13 z m 59,419 h 137 c -2,-27 -2,-55 -2,-82 V 589 c 0,-23 0,-46 2,-69 H 771 c 3,23 3,48 3,71 v 392 c 0,25 0,50 -3,75 z m 509,-16 V 921 c -20,14 -44,21 -68,21 -45,0 -53,-45 -53,-82 V 635 h 52 c 18,0 35,2 53,2 V 520 h -105 c 0,-34 -2,-68 3,-102 h -140 c 3,18 4,36 4,55 v 47 h -60 v 117 c 12,-1 24,-3 37,-3 7,0 15,1 23,1 v 2 h -2 v 217 c 0,108 16,212 148,212 37,0 75,-6 108,-24 z M 924,336 c 0,-47 -35,-91 -84,-91 -49,0 -85,43 -85,91 0,47 37,89 85,89 48,0 84,-43 84,-89 z m 612,-48 v 960 c 0,159 -129,288 -288,288 H 288 C 129,1536 0,1407 0,1248 V 288 C 0,129 129,0 288,0 h 960 c 159,0 288,129 288,288 z" />
</svg>
