<?xml version="1.0" encoding="UTF-8" standalone="no"?>
<svg
   xmlns:dc="http://purl.org/dc/elements/1.1/"
   xmlns:cc="http://creativecommons.org/ns#"
   xmlns:rdf="http://www.w3.org/1999/02/22-rdf-syntax-ns#"
   xmlns:svg="http://www.w3.org/2000/svg"
   xmlns="http://www.w3.org/2000/svg"
   id="svg4"
   version="1.1"
   height="1536"
   width="1536">
  <metadata
     id="metadata10">
    <rdf:RDF>
      <cc:Work
         rdf:about="">
        <dc:format>image/svg+xml</dc:format>
        <dc:type
           rdf:resource="http://purl.org/dc/dcmitype/StillImage" />
        <dc:title></dc:title>
      </cc:Work>
    </rdf:RDF>
  </metadata>
  <defs
     id="defs8" />
  <path
     id="path2"
     d="m 448,341 c 0,-71 -57,-128 -128,-128 -71,0 -128,57 -128,128 0,71 57,128 128,128 71,0 128,-57 128,-128 z m 1067,576 c 0,34 -14,67 -37,90 l -491,492 c -24,23 -57,37 -91,37 -34,0 -67,-14 -90,-37 L 91,783 C 40,733 0,636 0,565 V 149 C 0,79 58,21 128,21 h 416 c 71,0 168,40 219,91 l 715,714 c 23,24 37,57 37,91 z" />
</svg>
